<svg width="171" height="19" viewBox="0 0 171 19" fill="none" xmlns="http://www.w3.org/2000/svg">
<g clip-path="url(#clip0)">
<path d="M108.552 0.0575005C107.511 0.0932661 106.398 0.155856 106.091 0.191621L105.521 0.254211V9.4996V18.745H107.222H108.914L108.887 15.2847C108.878 13.3891 108.896 11.7975 108.932 11.7618C108.978 11.726 109.376 11.7349 109.819 11.7797C111.149 11.9048 114.154 11.887 114.978 11.7349C117.765 11.2432 118.733 9.7589 118.733 5.95881C118.733 3.47311 118.344 2.14978 117.349 1.2467C116.1 0.111149 114.308 -0.130269 108.552 0.0575005ZM114.136 3.03498C114.697 3.30322 114.941 3.58041 115.177 4.18842C115.376 4.69808 115.403 7.07649 115.213 7.61297C115.005 8.23887 114.67 8.62335 114.127 8.88265L113.62 9.13301H111.267H108.914L108.887 6.04823C108.878 4.34937 108.887 2.9098 108.914 2.84721C108.95 2.74886 109.412 2.73097 111.285 2.7578L113.62 2.78462L114.136 3.03498Z" fill="black"/>
<path d="M1.62896 0.111204C1.45701 0.129087 1.01357 0.173793 0.660633 0.200618L0 0.254266V9.49072V18.7272L0.570135 18.7898C4.17194 19.1295 8.36198 19.0491 9.86424 18.6109C11.2036 18.2086 11.9547 17.377 12.2715 15.9285C12.4344 15.2043 12.4253 13.1299 12.2624 12.3698C11.8914 10.6352 10.9774 9.71425 9.34841 9.41024C8.63348 9.28506 8.52488 9.13306 9.06786 9.04365C11.0317 8.72176 11.8461 7.49679 11.8552 4.85908C11.8552 2.54326 11.2851 1.30935 9.90949 0.66557C8.85067 0.182735 8.38913 0.129087 5.02262 0.102262C3.33031 0.0843797 1.8009 0.093321 1.62896 0.111204ZM7.88235 1.60442C8.97737 1.85477 9.5837 2.30184 9.96379 3.14233C10.1357 3.51787 10.181 3.78611 10.2081 4.81437C10.2443 5.8784 10.2172 6.11981 10.0543 6.67418C9.79185 7.50573 9.33031 7.98856 8.49773 8.28363C7.93664 8.48928 7.8009 8.49822 4.77828 8.53399L1.62896 8.56081V5.02897V1.49712L1.97285 1.46135C2.15384 1.43453 3.42986 1.43453 4.79638 1.44347C6.61538 1.46135 7.44796 1.50606 7.88235 1.60442ZM7.17646 9.89308C9.55655 10.1166 10.4344 10.9124 10.6878 13.0673C10.7602 13.6842 10.7602 14.1402 10.6968 14.7214C10.5068 16.2772 9.95474 17.0015 8.64253 17.386C8.13574 17.529 3.24887 17.6542 2.20814 17.538L1.62896 17.4754V13.7021C1.62896 11.6188 1.65611 9.89308 1.69231 9.86625C1.7828 9.7679 6.09954 9.79472 7.17646 9.89308Z" fill="black"/>
<path d="M18.552 0.111151C18.3257 0.129034 17.8461 0.164799 17.4932 0.200565L16.8325 0.254213V9.4996V18.745H17.6922H18.552V14.927V11.118L19.4841 11.1806C19.9909 11.2074 21.1583 11.2611 22.0814 11.2968C27.3936 11.4667 28.7782 10.3133 28.7782 5.69057C28.7782 2.2392 27.9909 0.862227 25.6741 0.263154C25.2217 0.146916 24.5339 0.120092 22.0361 0.102209C20.3438 0.093268 18.7782 0.093268 18.552 0.111151ZM24.8054 1.60436C25.4569 1.76531 26.0814 2.12296 26.38 2.50744C26.9592 3.25852 27.2578 5.01103 27.0769 6.62048C26.8778 8.42664 26.3257 9.24925 25.0226 9.67843C24.6515 9.80361 24.0542 9.83938 21.5655 9.8662L18.552 9.91091V5.69952V1.49707L19.5746 1.4613C21.5565 1.38977 24.2805 1.47024 24.8054 1.60436Z" fill="black"/>
<path d="M35.1584 0.280978C33.9005 0.504513 32.9955 1.14829 32.5158 2.15867L32.2625 2.69515V9.53531V16.3755L32.4977 16.8762C32.8145 17.5289 33.3575 18.0654 34.0453 18.3873C34.9864 18.8254 35.5113 18.8701 39.3665 18.7986C41.2851 18.7628 43.1946 18.7002 43.6109 18.6734L44.371 18.6108L44.362 17.9402C44.3529 17.5736 44.3167 17.0193 44.2896 16.7152L44.2353 16.1609L40.3258 16.1341C36.1177 16.1072 36.0996 16.0983 35.7738 15.6244C35.629 15.4187 35.6109 15.1058 35.5837 12.8615L35.5566 10.34H39.4027H43.2579V9.08824V7.83645H39.4118H35.5656V5.84252C35.5656 3.59823 35.6199 3.35681 36.1991 3.07963C36.4887 2.93657 36.8869 2.91869 40.3891 2.91869H44.2534L44.2624 2.71303C44.2624 2.60574 44.2986 2.04243 44.3258 1.47018L44.3891 0.42404L44.0724 0.370392C43.6742 0.307802 38.2353 0.146857 36.8326 0.155798C36.2624 0.155798 35.5023 0.218388 35.1584 0.280978Z" fill="black"/>
<path d="M94.2262 0.24527C93.1674 0.424097 92.1176 1.16623 91.6651 2.03355C91.2217 2.90086 91.2217 2.81145 91.2217 11.0286V18.745H92.8959H94.5701L94.5882 11.2432C94.6153 3.78606 94.6153 3.73241 94.8054 3.48205C95.1945 2.97239 95.2036 2.96345 99.1402 2.91874L102.76 2.87404L102.833 1.67589C102.869 1.02317 102.887 0.459863 102.869 0.44198C102.706 0.281035 95.0045 0.102207 94.2262 0.24527Z" fill="black"/>
<path d="M48.9862 0.298918C48.6785 0.361508 48.3436 0.719163 48.2531 1.0947C48.2079 1.29141 48.1174 2.6505 48.0631 4.12583C48.0088 5.60116 47.9183 7.83651 47.864 9.0883C47.8097 10.3401 47.7011 13.0315 47.6197 15.0522L47.4658 18.745H49.1038H50.7418L50.8052 17.0193C50.8323 16.0805 50.9047 14.2117 50.95 12.8884C51.0043 11.5561 51.0767 9.28501 51.131 7.83651C51.1762 6.388 51.2486 4.68914 51.2758 4.0543L51.3301 2.91874H51.5925C51.7373 2.91874 51.855 2.93663 51.855 2.95451C51.855 3.15122 55.1581 15.4635 55.2758 15.7049C55.3663 15.8838 55.5835 16.0983 55.7916 16.2146C56.1264 16.4024 56.2622 16.4202 57.8278 16.4202C59.6559 16.4202 59.9364 16.3576 60.2893 15.8748C60.3889 15.7496 60.7237 14.6409 61.0495 13.4159C61.3753 12.191 61.9997 9.77679 62.4522 8.06004C62.9047 6.33435 63.3482 4.62655 63.4477 4.25995C63.5472 3.89335 63.6649 3.43734 63.7192 3.24957C63.7916 2.96345 63.8459 2.91874 64.0631 2.91874H64.3165L64.3798 4.27783C64.4703 6.388 64.597 9.51749 64.7509 13.246C64.8233 15.1148 64.9047 17.1177 64.9409 17.6899L64.9952 18.745H66.6151H68.235V18.4946C68.235 18.3605 68.1536 16.3845 68.054 14.0955C67.9545 11.8065 67.7916 7.97063 67.683 5.55645C67.4839 0.853284 67.4748 0.745987 66.9771 0.433039C66.778 0.298918 66.4432 0.281035 64.4341 0.281035C61.864 0.281035 61.7916 0.298918 61.4839 0.880108C61.4025 1.04105 61.0586 2.19449 60.7237 3.45523C60.3889 4.70702 59.8006 6.92448 59.4115 8.37299C59.0224 9.82149 58.5518 11.6724 58.3708 12.486C58.054 13.8898 58.0269 13.9614 57.8187 13.9614C57.6106 13.9614 57.5925 13.8988 57.321 12.6649C57.0767 11.5472 56.2984 8.57864 54.6332 2.41803C54.4251 1.63118 54.1717 0.871167 54.0812 0.737046C53.7826 0.281035 53.5111 0.236328 51.2486 0.24527C50.1174 0.254211 49.0948 0.281035 48.9862 0.298918Z" fill="black"/>
<path d="M72.1265 9.49066V18.745H73.8731H75.6106L77.502 15.4724C78.5427 13.6663 80.1265 10.9392 81.0224 9.41019C82.6875 6.54894 83.1672 5.66375 83.5201 4.76961C83.7645 4.18842 83.9455 4.08112 83.8459 4.59078C83.8097 4.77855 83.7645 8.04216 83.7373 11.8333L83.7011 18.745H85.3301H86.9681V9.49066V0.236326H85.2305L83.4839 0.245267L81.9817 2.85615C81.1491 4.29572 79.4749 7.18378 78.2532 9.27607C77.0405 11.3773 75.9093 13.407 75.7464 13.7915C75.5925 14.1849 75.3934 14.5604 75.321 14.632C75.2034 14.7482 75.1943 14.7303 75.2486 14.4084C75.2848 14.2117 75.3301 10.9392 75.3572 7.13908L75.3934 0.236326H73.7645H72.1265V9.49066Z" fill="black"/>
<path d="M125.257 0.388334C125.085 0.477748 124.868 0.647634 124.778 0.772813C124.642 0.960582 124.144 2.46273 122.714 6.98708C122.579 7.4252 121.683 10.2328 120.732 13.2192C119.782 16.2056 119.004 18.6645 119.004 18.6913C119.004 18.7182 119.773 18.745 120.705 18.745H122.416L123.176 16.152L123.936 13.559H127.438H130.941L131.212 14.4263C131.357 14.9091 131.61 15.7407 131.764 16.2861C131.918 16.8226 132.153 17.6005 132.271 18.0029L132.497 18.745H134.226C135.655 18.745 135.936 18.7271 135.9 18.6198C135.855 18.5036 135.013 15.8659 131.846 5.91411C130.995 3.25852 130.253 0.987406 130.198 0.871168C130.135 0.75493 129.972 0.567161 129.836 0.468806C129.592 0.289978 129.447 0.281037 127.574 0.254213C125.791 0.23633 125.529 0.245272 125.257 0.388334ZM127.873 2.85616C127.873 3.0171 129.692 9.35654 130.099 10.6262C130.144 10.7782 130.008 10.7872 127.465 10.7872C124.95 10.7872 124.778 10.7782 124.814 10.6262C124.841 10.5457 125.366 8.73065 125.981 6.61154L127.103 2.73992H127.493C127.746 2.73992 127.873 2.77568 127.873 2.85616Z" fill="black"/>
<path d="M138.19 9.49066V18.745H139.864H141.538L141.556 14.5157L141.583 10.2954H145.294H149.004L149.031 14.5157L149.049 18.745H150.724H152.398V9.49066V0.236326H150.724H149.049V3.90229V7.56826L145.321 7.55038L141.583 7.52356L141.556 3.87547L141.538 0.236326H139.864H138.19V9.49066Z" fill="black"/>
<path d="M155.203 0.281033C155.203 0.307857 155.194 0.942696 155.194 1.68483V3.05286L158.045 3.07969L160.905 3.09757V10.9213V18.745H162.579H164.253V10.9213V3.09757H167.194H170.135V1.66695V0.236326H162.669C158.561 0.236326 155.203 0.254209 155.203 0.281033Z" fill="black"/>
</g>
<defs>
<clipPath id="clip0">
<rect width="171" height="19" fill="white"/>
</clipPath>
</defs>
</svg>
