<svg version="1.0" xmlns="http://www.w3.org/2000/svg"
 width="2048.000000pt" height="2048.000000pt" viewBox="0 0 2048.000000 2048.000000"
 preserveAspectRatio="xMidYMid meet">

<g transform="translate(0.000000,2048.000000) scale(0.100000,-0.100000)"
fill="#000000" stroke="none">
<path d="M10515 17959 c-514 -31 -843 -93 -1249 -235 -1147 -401 -2081 -1335
-2489 -2489 -183 -517 -270 -1137 -222 -1588 49 -464 229 -1001 554 -1657 406
-816 985 -1726 1766 -2775 489 -657 1036 -1339 1535 -1914 102 -118 195 -226
207 -240 11 -14 23 -24 26 -21 2 3 80 93 174 201 489 563 1107 1332 1559 1939
1241 1664 2019 3048 2264 4024 79 313 103 541 89 846 -48 1047 -483 2017
-1230 2745 -649 633 -1454 1020 -2356 1135 -76 10 -480 41 -492 39 -3 -1 -64
-5 -136 -10z m280 -1364 c512 -21 1046 -214 1472 -532 565 -422 947 -1040
1067 -1728 29 -164 36 -258 36 -470 0 -212 -7 -306 -36 -470 -185 -1062 -986
-1923 -2031 -2185 -1236 -309 -2499 259 -3099 1395 -159 300 -257 631 -295
995 -19 182 -7 542 25 720 49 275 133 535 247 761 424 844 1250 1417 2174
1509 113 11 241 17 285 13 14 -1 84 -5 155 -8z"/>
<path d="M9379 15798 c118 -226 152 -290 221 -423 40 -77 87 -167 105 -200 18
-33 92 -175 165 -315 73 -140 149 -286 170 -325 41 -78 124 -235 225 -430 37
-71 84 -161 105 -200 21 -38 41 -88 45 -110 7 -44 43 -111 72 -136 65 -53 181
-64 259 -23 53 28 72 30 1574 173 234 23 432 42 440 44 8 1 -68 10 -170 20
-102 10 -228 22 -280 27 -109 10 -123 12 -835 80 -291 28 -574 55 -628 60 -54
5 -102 12 -107 15 -4 3 -43 51 -86 108 -43 56 -166 217 -273 357 -320 418
-571 747 -814 1065 -126 165 -231 302 -234 305 -3 3 17 -39 46 -92z"/>
<path d="M13205 4790 c-115 -4 -238 -11 -272 -15 l-63 -7 0 -1034 0 -1034 188
0 187 0 -3 387 c-1 212 1 390 5 394 5 4 49 3 98 -2 147 -14 479 -12 570 5 308
55 415 221 415 646 0 278 -43 426 -153 527 -138 127 -336 154 -972 133z m617
-333 c62 -30 89 -61 115 -129 22 -57 25 -323 4 -383 -23 -70 -60 -113 -120
-142 l-56 -28 -260 0 -260 0 -3 345 c-1 190 0 351 3 358 4 11 55 13 262 10
l258 -3 57 -28z"/>
<path d="M1390 4784 c-19 -2 -68 -7 -107 -10 l-73 -6 0 -1033 0 -1033 63 -7
c398 -38 861 -29 1027 20 148 45 231 138 266 300 18 81 17 313 -1 398 -41 194
-142 297 -322 331 -79 14 -91 31 -31 41 217 36 307 173 308 468 0 259 -63 397
-215 469 -117 54 -168 60 -540 63 -187 2 -356 1 -375 -1z m691 -167 c121 -28
188 -78 230 -172 19 -42 24 -72 27 -187 4 -119 1 -146 -17 -208 -29 -93 -80
-147 -172 -180 -62 -23 -77 -24 -411 -28 l-348 -3 0 395 0 395 38 4 c20 3 161
3 312 2 201 -2 293 -7 341 -18z m-78 -927 c263 -25 360 -114 388 -355 8 -69 8
-120 1 -185 -21 -174 -82 -255 -227 -298 -56 -16 -596 -30 -711 -17 l-64 7 0
422 c0 233 3 426 7 429 10 11 487 8 606 -3z"/>
<path d="M3260 4784 c-25 -2 -78 -6 -117 -10 l-73 -6 0 -1034 0 -1034 95 0 95
0 0 427 0 426 103 -7 c56 -3 185 -9 287 -13 587 -19 740 110 740 627 0 386
-87 540 -343 607 -50 13 -126 16 -402 18 -187 1 -360 1 -385 -1z m691 -167
c72 -18 141 -58 174 -101 64 -84 97 -280 77 -460 -22 -202 -83 -294 -227 -342
-41 -14 -107 -18 -382 -21 l-333 -5 0 471 0 470 113 4 c219 8 520 -1 578 -16z"/>
<path d="M5095 4765 c-139 -25 -239 -97 -292 -210 l-28 -60 0 -765 0 -765 26
-56 c35 -73 95 -133 171 -169 104 -49 162 -54 588 -46 212 4 423 11 469 14
l84 7 -1 75 c-1 41 -5 103 -8 137 l-6 62 -432 3 c-465 3 -467 4 -503 57 -16
23 -18 58 -21 309 l-3 282 425 0 426 0 0 140 0 140 -425 0 -425 0 0 223 c0
251 6 278 70 309 32 16 76 18 463 18 l427 0 1 23 c0 12 4 75 7 139 l7 117 -35
6 c-44 7 -645 25 -800 24 -63 0 -147 -7 -185 -14z"/>
<path d="M11622 4769 c-117 -20 -233 -103 -283 -200 -49 -97 -49 -87 -49
-1006 l0 -863 185 0 185 0 2 839 c3 834 3 840 24 868 43 57 44 58 479 63 l400
5 8 134 c4 73 6 136 4 138 -18 18 -869 38 -955 22z"/>
<path d="M6623 4763 c-34 -7 -71 -47 -81 -89 -5 -22 -15 -174 -21 -339 -6
-165 -16 -415 -22 -555 -6 -140 -18 -441 -27 -667 l-17 -413 181 0 181 0 7
193 c3 105 11 314 16 462 6 149 14 403 20 565 5 162 13 352 16 423 l6 127 29
0 c16 0 29 -2 29 -4 0 -22 365 -1399 378 -1426 10 -20 34 -44 57 -57 37 -21
52 -23 225 -23 202 0 233 7 272 61 11 14 48 138 84 275 36 137 105 407 155
599 50 193 99 384 110 425 11 41 24 92 30 113 8 32 14 37 38 37 l28 0 7 -152
c10 -236 24 -586 41 -1003 8 -209 17 -433 21 -497 l6 -118 179 0 179 0 0 28
c0 15 -9 236 -20 492 -11 256 -29 685 -41 955 -22 526 -23 538 -78 573 -22 15
-59 17 -281 17 -284 0 -292 -2 -326 -67 -9 -18 -47 -147 -84 -288 -37 -140
-102 -388 -145 -550 -43 -162 -95 -369 -115 -460 -35 -157 -38 -165 -61 -165
-23 0 -25 7 -55 145 -27 125 -113 457 -297 1146 -23 88 -51 173 -61 188 -33
51 -63 56 -313 55 -125 -1 -238 -4 -250 -6z"/>
<path d="M9180 3735 l0 -1035 193 0 192 0 209 366 c115 202 290 507 389 678
184 320 237 419 276 519 27 65 47 77 36 20 -4 -21 -9 -386 -12 -810 l-4 -773
180 0 181 0 0 1035 0 1035 -192 0 -193 -1 -166 -292 c-92 -161 -277 -484 -412
-718 -134 -235 -259 -462 -277 -505 -17 -44 -39 -86 -47 -94 -13 -13 -14 -11
-8 25 4 22 9 388 12 813 l4 772 -180 0 -181 0 0 -1035z"/>
<path d="M15051 4753 c-19 -10 -43 -29 -53 -43 -15 -21 -70 -189 -228 -695
-15 -49 -114 -363 -219 -697 -105 -334 -191 -609 -191 -612 0 -3 85 -6 188 -6
l189 0 84 290 84 290 387 0 387 0 30 -97 c16 -54 44 -147 61 -208 17 -60 43
-147 56 -192 l25 -83 191 0 c158 0 189 2 185 14 -5 13 -98 308 -448 1421 -94
297 -176 551 -182 564 -7 13 -25 34 -40 45 -27 20 -43 21 -250 24 -197 2 -226
1 -256 -15z m289 -276 c0 -18 201 -727 246 -869 5 -17 -10 -18 -291 -18 -278
0 -297 1 -293 18 3 9 61 212 129 449 l124 433 43 0 c28 0 42 -4 42 -13z"/>
<path d="M16480 3735 l0 -1035 185 0 185 0 2 473 3 472 410 0 410 0 3 -472 2
-473 185 0 185 0 0 1035 0 1035 -185 0 -185 0 0 -410 0 -410 -412 2 -413 3 -3
408 -2 407 -185 0 -185 0 0 -1035z"/>
<path d="M18360 4765 c0 -3 -1 -74 -1 -157 l0 -153 315 -3 316 -2 0 -875 0
-875 185 0 185 0 0 875 0 875 325 0 325 0 0 160 0 160 -825 0 c-454 0 -825 -2
-825 -5z"/>
</g>
</svg>
